<mxfile host="app.diagrams.net" modified="2022-01-05T14:45:08.643Z" agent="5.0 (Windows NT 10.0; Win64; x64) AppleWebKit/537.36 (KHTML, like Gecko) Chrome/96.0.4664.110 Safari/537.36 Edg/96.0.1054.62" etag="VCQkfzKmtgabxzx7YJ9l" version="16.2.2" type="github">
  <diagram id="VkaYSRoHR8YTlxPf7dWP" name="Page-1">
    <mxGraphModel dx="4688" dy="4950" grid="1" gridSize="10" guides="1" tooltips="1" connect="1" arrows="1" fold="1" page="1" pageScale="1" pageWidth="827" pageHeight="1169" math="0" shadow="0">
      <root>
        <mxCell id="0" />
        <mxCell id="1" parent="0" />
        <mxCell id="yAQwgoU1iI2T6ozsvspa-2" value="" style="rounded=0;whiteSpace=wrap;html=1;" vertex="1" parent="1">
          <mxGeometry x="10" y="-1600" width="810" height="2550" as="geometry" />
        </mxCell>
        <mxCell id="1w434KkkwGxaurQFL4mm-30" value="Provider User&lt;br&gt;----&lt;br&gt;Dr. Surav" style="ellipse;whiteSpace=wrap;html=1;" parent="1" vertex="1">
          <mxGeometry x="678" y="680" width="120" height="60" as="geometry" />
        </mxCell>
        <mxCell id="1w434KkkwGxaurQFL4mm-31" style="edgeStyle=orthogonalEdgeStyle;rounded=0;orthogonalLoop=1;jettySize=auto;html=1;exitX=1;exitY=0.5;exitDx=0;exitDy=0;entryX=0;entryY=0.5;entryDx=0;entryDy=0;" parent="1" source="1w434KkkwGxaurQFL4mm-32" target="1w434KkkwGxaurQFL4mm-30" edge="1">
          <mxGeometry relative="1" as="geometry" />
        </mxCell>
        <mxCell id="1w434KkkwGxaurQFL4mm-32" value="LinkVendorProvider&lt;br&gt;-----&lt;br&gt;Status&lt;br&gt;&lt;br&gt;------&lt;br&gt;&lt;br&gt;Sayami -- Dr Surav -- 1&lt;br&gt;Krishna -- Dr Surav -- 1" style="rounded=0;whiteSpace=wrap;html=1;" parent="1" vertex="1">
          <mxGeometry x="328" y="650" width="200" height="120" as="geometry" />
        </mxCell>
        <mxCell id="1w434KkkwGxaurQFL4mm-33" style="edgeStyle=orthogonalEdgeStyle;rounded=0;orthogonalLoop=1;jettySize=auto;html=1;exitX=1;exitY=0.5;exitDx=0;exitDy=0;entryX=0.5;entryY=0;entryDx=0;entryDy=0;" parent="1" source="1w434KkkwGxaurQFL4mm-34" target="1w434KkkwGxaurQFL4mm-32" edge="1">
          <mxGeometry relative="1" as="geometry" />
        </mxCell>
        <mxCell id="1w434KkkwGxaurQFL4mm-34" value="Vendor Admin&lt;br&gt;--&lt;br&gt;Sayami" style="ellipse;whiteSpace=wrap;html=1;rounded=0;" parent="1" vertex="1">
          <mxGeometry x="28" y="600" width="120" height="60" as="geometry" />
        </mxCell>
        <mxCell id="1w434KkkwGxaurQFL4mm-35" style="edgeStyle=orthogonalEdgeStyle;rounded=0;orthogonalLoop=1;jettySize=auto;html=1;exitX=1;exitY=0.5;exitDx=0;exitDy=0;entryX=0.5;entryY=1;entryDx=0;entryDy=0;" parent="1" source="1w434KkkwGxaurQFL4mm-36" target="1w434KkkwGxaurQFL4mm-32" edge="1">
          <mxGeometry relative="1" as="geometry" />
        </mxCell>
        <mxCell id="1w434KkkwGxaurQFL4mm-36" value="Vendor Admin&lt;br&gt;--&lt;br&gt;Krishna" style="ellipse;whiteSpace=wrap;html=1;rounded=0;" parent="1" vertex="1">
          <mxGeometry x="28" y="765" width="120" height="60" as="geometry" />
        </mxCell>
        <mxCell id="1w434KkkwGxaurQFL4mm-60" value="" style="group" parent="1" vertex="1" connectable="0">
          <mxGeometry x="38" y="-1490" width="2282" height="2380" as="geometry" />
        </mxCell>
        <mxCell id="1w434KkkwGxaurQFL4mm-37" value="Alka Hospital" style="rounded=0;whiteSpace=wrap;html=1;" parent="1w434KkkwGxaurQFL4mm-60" vertex="1">
          <mxGeometry x="37" y="100" width="120" height="60" as="geometry" />
        </mxCell>
        <mxCell id="1w434KkkwGxaurQFL4mm-38" value="Vayoda" style="rounded=0;whiteSpace=wrap;html=1;" parent="1w434KkkwGxaurQFL4mm-60" vertex="1">
          <mxGeometry x="37" y="230" width="120" height="60" as="geometry" />
        </mxCell>
        <mxCell id="1w434KkkwGxaurQFL4mm-41" value="Vendor Admin&lt;br&gt;--&lt;br&gt;Sayami" style="ellipse;whiteSpace=wrap;html=1;rounded=0;" parent="1w434KkkwGxaurQFL4mm-60" vertex="1">
          <mxGeometry x="319" y="170" width="120" height="60" as="geometry" />
        </mxCell>
        <mxCell id="1w434KkkwGxaurQFL4mm-42" style="edgeStyle=orthogonalEdgeStyle;rounded=0;orthogonalLoop=1;jettySize=auto;html=1;exitX=1;exitY=0.5;exitDx=0;exitDy=0;" parent="1w434KkkwGxaurQFL4mm-60" source="1w434KkkwGxaurQFL4mm-37" target="1w434KkkwGxaurQFL4mm-41" edge="1">
          <mxGeometry relative="1" as="geometry" />
        </mxCell>
        <mxCell id="1w434KkkwGxaurQFL4mm-43" style="edgeStyle=orthogonalEdgeStyle;rounded=0;orthogonalLoop=1;jettySize=auto;html=1;exitX=1;exitY=0.5;exitDx=0;exitDy=0;entryX=0.5;entryY=1;entryDx=0;entryDy=0;" parent="1w434KkkwGxaurQFL4mm-60" source="1w434KkkwGxaurQFL4mm-38" target="1w434KkkwGxaurQFL4mm-41" edge="1">
          <mxGeometry relative="1" as="geometry" />
        </mxCell>
        <mxCell id="1w434KkkwGxaurQFL4mm-44" value="LinkVendorAdmins&lt;br&gt;-----&lt;br&gt;Status&lt;br&gt;&lt;br&gt;------&lt;br&gt;&lt;br&gt;Alka --&amp;nbsp; Sayami-- 1&lt;br&gt;vayoda--&amp;nbsp; Sayami-- 1" style="rounded=0;whiteSpace=wrap;html=1;" parent="1w434KkkwGxaurQFL4mm-60" vertex="1">
          <mxGeometry x="549" y="130" width="200" height="140" as="geometry" />
        </mxCell>
        <mxCell id="1w434KkkwGxaurQFL4mm-45" style="edgeStyle=orthogonalEdgeStyle;rounded=0;orthogonalLoop=1;jettySize=auto;html=1;exitX=1;exitY=0.5;exitDx=0;exitDy=0;" parent="1w434KkkwGxaurQFL4mm-60" source="1w434KkkwGxaurQFL4mm-41" target="1w434KkkwGxaurQFL4mm-44" edge="1">
          <mxGeometry relative="1" as="geometry" />
        </mxCell>
        <mxCell id="1w434KkkwGxaurQFL4mm-59" value="Multiple Vendor to Single vendor admin" style="rounded=0;whiteSpace=wrap;html=1;" parent="1w434KkkwGxaurQFL4mm-60" vertex="1">
          <mxGeometry width="750" height="60" as="geometry" />
        </mxCell>
        <mxCell id="1w434KkkwGxaurQFL4mm-62" value="" style="group" parent="1" vertex="1" connectable="0">
          <mxGeometry x="53" y="-1100" width="720" height="160" as="geometry" />
        </mxCell>
        <mxCell id="1w434KkkwGxaurQFL4mm-18" value="Users&lt;br&gt;-------&lt;br&gt;isLocked" style="whiteSpace=wrap;html=1;" parent="1w434KkkwGxaurQFL4mm-62" vertex="1">
          <mxGeometry x="440" y="100" width="120" height="60" as="geometry" />
        </mxCell>
        <mxCell id="1w434KkkwGxaurQFL4mm-24" style="edgeStyle=orthogonalEdgeStyle;rounded=0;orthogonalLoop=1;jettySize=auto;html=1;exitX=1;exitY=0.5;exitDx=0;exitDy=0;entryX=0;entryY=0.5;entryDx=0;entryDy=0;" parent="1w434KkkwGxaurQFL4mm-62" source="1w434KkkwGxaurQFL4mm-23" target="1w434KkkwGxaurQFL4mm-18" edge="1">
          <mxGeometry relative="1" as="geometry" />
        </mxCell>
        <mxCell id="1w434KkkwGxaurQFL4mm-23" value="Provider User&lt;br&gt;----&lt;br&gt;Dr. Surav" style="ellipse;whiteSpace=wrap;html=1;" parent="1w434KkkwGxaurQFL4mm-62" vertex="1">
          <mxGeometry x="150" y="100" width="120" height="60" as="geometry" />
        </mxCell>
        <mxCell id="1w434KkkwGxaurQFL4mm-61" value="Saving Provider User information in Users table only" style="rounded=0;whiteSpace=wrap;html=1;" parent="1w434KkkwGxaurQFL4mm-62" vertex="1">
          <mxGeometry width="720" height="60" as="geometry" />
        </mxCell>
        <mxCell id="1w434KkkwGxaurQFL4mm-65" value="" style="group" parent="1" vertex="1" connectable="0">
          <mxGeometry x="61" y="-860" width="727" height="350" as="geometry" />
        </mxCell>
        <mxCell id="1w434KkkwGxaurQFL4mm-1" value="Alka Hospital" style="rounded=0;whiteSpace=wrap;html=1;" parent="1w434KkkwGxaurQFL4mm-65" vertex="1">
          <mxGeometry x="37" y="90" width="120" height="40" as="geometry" />
        </mxCell>
        <mxCell id="1w434KkkwGxaurQFL4mm-2" value="Vendor Admin&lt;br&gt;--&lt;br&gt;Sayami" style="ellipse;whiteSpace=wrap;html=1;rounded=0;" parent="1w434KkkwGxaurQFL4mm-65" vertex="1">
          <mxGeometry x="237" y="80" width="120" height="60" as="geometry" />
        </mxCell>
        <mxCell id="1w434KkkwGxaurQFL4mm-3" value="" style="edgeStyle=orthogonalEdgeStyle;rounded=0;orthogonalLoop=1;jettySize=auto;html=1;" parent="1w434KkkwGxaurQFL4mm-65" source="1w434KkkwGxaurQFL4mm-1" target="1w434KkkwGxaurQFL4mm-2" edge="1">
          <mxGeometry relative="1" as="geometry" />
        </mxCell>
        <mxCell id="1w434KkkwGxaurQFL4mm-4" value="Provider User&lt;br&gt;----&lt;br&gt;Dr. Raj" style="ellipse;whiteSpace=wrap;html=1;" parent="1w434KkkwGxaurQFL4mm-65" vertex="1">
          <mxGeometry x="567" y="80" width="120" height="60" as="geometry" />
        </mxCell>
        <mxCell id="1w434KkkwGxaurQFL4mm-5" style="edgeStyle=orthogonalEdgeStyle;rounded=0;orthogonalLoop=1;jettySize=auto;html=1;exitX=1;exitY=0.5;exitDx=0;exitDy=0;entryX=0;entryY=0.5;entryDx=0;entryDy=0;" parent="1w434KkkwGxaurQFL4mm-65" source="1w434KkkwGxaurQFL4mm-2" target="1w434KkkwGxaurQFL4mm-4" edge="1">
          <mxGeometry relative="1" as="geometry" />
        </mxCell>
        <mxCell id="1w434KkkwGxaurQFL4mm-6" value="Provider User&lt;br&gt;----&lt;br&gt;Dr. Kumar" style="ellipse;whiteSpace=wrap;html=1;" parent="1w434KkkwGxaurQFL4mm-65" vertex="1">
          <mxGeometry x="577" y="160" width="120" height="60" as="geometry" />
        </mxCell>
        <mxCell id="1w434KkkwGxaurQFL4mm-10" style="edgeStyle=orthogonalEdgeStyle;rounded=0;orthogonalLoop=1;jettySize=auto;html=1;exitX=1;exitY=0.5;exitDx=0;exitDy=0;entryX=0;entryY=0.5;entryDx=0;entryDy=0;" parent="1w434KkkwGxaurQFL4mm-65" source="1w434KkkwGxaurQFL4mm-2" target="1w434KkkwGxaurQFL4mm-6" edge="1">
          <mxGeometry relative="1" as="geometry" />
        </mxCell>
        <mxCell id="1w434KkkwGxaurQFL4mm-7" value="Provider User&lt;br&gt;----&lt;br&gt;Dr. Surav" style="ellipse;whiteSpace=wrap;html=1;" parent="1w434KkkwGxaurQFL4mm-65" vertex="1">
          <mxGeometry x="577" y="240" width="120" height="60" as="geometry" />
        </mxCell>
        <mxCell id="1w434KkkwGxaurQFL4mm-11" style="edgeStyle=orthogonalEdgeStyle;rounded=0;orthogonalLoop=1;jettySize=auto;html=1;exitX=1;exitY=0.5;exitDx=0;exitDy=0;entryX=0;entryY=0.5;entryDx=0;entryDy=0;" parent="1w434KkkwGxaurQFL4mm-65" source="1w434KkkwGxaurQFL4mm-2" target="1w434KkkwGxaurQFL4mm-7" edge="1">
          <mxGeometry relative="1" as="geometry" />
        </mxCell>
        <mxCell id="1w434KkkwGxaurQFL4mm-13" value="Vayodha Hospital" style="rounded=0;whiteSpace=wrap;html=1;" parent="1w434KkkwGxaurQFL4mm-65" vertex="1">
          <mxGeometry x="37" y="300" width="120" height="40" as="geometry" />
        </mxCell>
        <mxCell id="1w434KkkwGxaurQFL4mm-16" style="edgeStyle=orthogonalEdgeStyle;rounded=0;orthogonalLoop=1;jettySize=auto;html=1;exitX=1;exitY=0.5;exitDx=0;exitDy=0;entryX=0.5;entryY=1;entryDx=0;entryDy=0;" parent="1w434KkkwGxaurQFL4mm-65" source="1w434KkkwGxaurQFL4mm-14" target="1w434KkkwGxaurQFL4mm-7" edge="1">
          <mxGeometry relative="1" as="geometry" />
        </mxCell>
        <mxCell id="1w434KkkwGxaurQFL4mm-14" value="Vendor Admin&lt;br&gt;--&lt;br&gt;Krishna" style="ellipse;whiteSpace=wrap;html=1;rounded=0;" parent="1w434KkkwGxaurQFL4mm-65" vertex="1">
          <mxGeometry x="237" y="290" width="120" height="60" as="geometry" />
        </mxCell>
        <mxCell id="1w434KkkwGxaurQFL4mm-15" style="edgeStyle=orthogonalEdgeStyle;rounded=0;orthogonalLoop=1;jettySize=auto;html=1;entryX=0;entryY=0.5;entryDx=0;entryDy=0;" parent="1w434KkkwGxaurQFL4mm-65" source="1w434KkkwGxaurQFL4mm-13" target="1w434KkkwGxaurQFL4mm-14" edge="1">
          <mxGeometry relative="1" as="geometry" />
        </mxCell>
        <mxCell id="1w434KkkwGxaurQFL4mm-64" value="Multiple Vendor -- Multiple Vendor Admin -- Multiple Provider with overlapping vendor for single provider" style="rounded=0;whiteSpace=wrap;html=1;" parent="1w434KkkwGxaurQFL4mm-65" vertex="1">
          <mxGeometry width="727" height="60" as="geometry" />
        </mxCell>
        <mxCell id="1w434KkkwGxaurQFL4mm-51" style="edgeStyle=orthogonalEdgeStyle;rounded=0;orthogonalLoop=1;jettySize=auto;html=1;exitX=1;exitY=0.5;exitDx=0;exitDy=0;entryX=0;entryY=0.5;entryDx=0;entryDy=0;" parent="1" source="1w434KkkwGxaurQFL4mm-46" target="1w434KkkwGxaurQFL4mm-47" edge="1">
          <mxGeometry relative="1" as="geometry" />
        </mxCell>
        <mxCell id="1w434KkkwGxaurQFL4mm-48" value="Vayoda" style="rounded=0;whiteSpace=wrap;html=1;" parent="1" vertex="1">
          <mxGeometry x="273" y="450" width="120" height="60" as="geometry" />
        </mxCell>
        <mxCell id="1w434KkkwGxaurQFL4mm-57" style="edgeStyle=orthogonalEdgeStyle;rounded=0;orthogonalLoop=1;jettySize=auto;html=1;exitX=1;exitY=0.5;exitDx=0;exitDy=0;entryX=0.5;entryY=1;entryDx=0;entryDy=0;" parent="1" source="1w434KkkwGxaurQFL4mm-48" target="1w434KkkwGxaurQFL4mm-55" edge="1">
          <mxGeometry relative="1" as="geometry" />
        </mxCell>
        <mxCell id="1w434KkkwGxaurQFL4mm-52" style="edgeStyle=orthogonalEdgeStyle;rounded=0;orthogonalLoop=1;jettySize=auto;html=1;exitX=1;exitY=0.5;exitDx=0;exitDy=0;entryX=0;entryY=0.5;entryDx=0;entryDy=0;" parent="1" source="1w434KkkwGxaurQFL4mm-46" target="1w434KkkwGxaurQFL4mm-48" edge="1">
          <mxGeometry relative="1" as="geometry" />
        </mxCell>
        <mxCell id="1w434KkkwGxaurQFL4mm-50" value="Provider User/Staff&lt;br&gt;----&lt;br&gt;Dr. Raj" style="ellipse;whiteSpace=wrap;html=1;" parent="1" vertex="1">
          <mxGeometry x="653" y="320" width="120" height="60" as="geometry" />
        </mxCell>
        <mxCell id="1w434KkkwGxaurQFL4mm-58" style="edgeStyle=orthogonalEdgeStyle;rounded=0;orthogonalLoop=1;jettySize=auto;html=1;exitX=1;exitY=0.5;exitDx=0;exitDy=0;entryX=0;entryY=0.5;entryDx=0;entryDy=0;" parent="1" source="1w434KkkwGxaurQFL4mm-55" target="1w434KkkwGxaurQFL4mm-50" edge="1">
          <mxGeometry relative="1" as="geometry" />
        </mxCell>
        <mxCell id="1w434KkkwGxaurQFL4mm-55" value="Table" style="rounded=1;whiteSpace=wrap;html=1;" parent="1" vertex="1">
          <mxGeometry x="493" y="320" width="120" height="60" as="geometry" />
        </mxCell>
        <mxCell id="1w434KkkwGxaurQFL4mm-56" style="edgeStyle=orthogonalEdgeStyle;rounded=0;orthogonalLoop=1;jettySize=auto;html=1;exitX=1;exitY=0.5;exitDx=0;exitDy=0;entryX=0.5;entryY=0;entryDx=0;entryDy=0;" parent="1" source="1w434KkkwGxaurQFL4mm-47" target="1w434KkkwGxaurQFL4mm-55" edge="1">
          <mxGeometry relative="1" as="geometry" />
        </mxCell>
        <mxCell id="1w434KkkwGxaurQFL4mm-47" value="Alka Hospital" style="rounded=0;whiteSpace=wrap;html=1;" parent="1" vertex="1">
          <mxGeometry x="273" y="190" width="120" height="60" as="geometry" />
        </mxCell>
        <mxCell id="1w434KkkwGxaurQFL4mm-46" value="Vendor Admin&lt;br&gt;--&lt;br&gt;Sayami" style="ellipse;whiteSpace=wrap;html=1;rounded=0;" parent="1" vertex="1">
          <mxGeometry x="53" y="340" width="120" height="60" as="geometry" />
        </mxCell>
        <mxCell id="1w434KkkwGxaurQFL4mm-63" value="Issue FIx" style="rounded=0;whiteSpace=wrap;html=1;" parent="1" vertex="1">
          <mxGeometry x="64.5" y="-460" width="727" height="60" as="geometry" />
        </mxCell>
        <mxCell id="1w434KkkwGxaurQFL4mm-90" style="edgeStyle=orthogonalEdgeStyle;rounded=0;orthogonalLoop=1;jettySize=auto;html=1;exitX=1;exitY=0.5;exitDx=0;exitDy=0;entryX=0;entryY=0.5;entryDx=0;entryDy=0;" parent="1" source="1w434KkkwGxaurQFL4mm-67" target="1w434KkkwGxaurQFL4mm-89" edge="1">
          <mxGeometry relative="1" as="geometry" />
        </mxCell>
        <mxCell id="1w434KkkwGxaurQFL4mm-67" value="Alka Hospital" style="rounded=0;whiteSpace=wrap;html=1;" parent="1" vertex="1">
          <mxGeometry x="98" y="-340" width="120" height="40" as="geometry" />
        </mxCell>
        <mxCell id="1w434KkkwGxaurQFL4mm-81" style="edgeStyle=orthogonalEdgeStyle;rounded=0;orthogonalLoop=1;jettySize=auto;html=1;exitX=1;exitY=0.5;exitDx=0;exitDy=0;" parent="1" source="1w434KkkwGxaurQFL4mm-68" target="1w434KkkwGxaurQFL4mm-80" edge="1">
          <mxGeometry relative="1" as="geometry" />
        </mxCell>
        <mxCell id="1w434KkkwGxaurQFL4mm-68" value="Vendor Admin&lt;br&gt;--&lt;br&gt;Sayami" style="ellipse;whiteSpace=wrap;html=1;rounded=0;" parent="1" vertex="1">
          <mxGeometry x="298" y="-350" width="120" height="60" as="geometry" />
        </mxCell>
        <mxCell id="1w434KkkwGxaurQFL4mm-69" value="" style="edgeStyle=orthogonalEdgeStyle;rounded=0;orthogonalLoop=1;jettySize=auto;html=1;" parent="1" source="1w434KkkwGxaurQFL4mm-67" target="1w434KkkwGxaurQFL4mm-68" edge="1">
          <mxGeometry relative="1" as="geometry" />
        </mxCell>
        <mxCell id="1w434KkkwGxaurQFL4mm-70" value="Provider User&lt;br&gt;----&lt;br&gt;Dr. Raj" style="ellipse;whiteSpace=wrap;html=1;" parent="1" vertex="1">
          <mxGeometry x="631.5" y="-350" width="120" height="60" as="geometry" />
        </mxCell>
        <mxCell id="1w434KkkwGxaurQFL4mm-72" value="Provider User&lt;br&gt;----&lt;br&gt;Dr. Kumar" style="ellipse;whiteSpace=wrap;html=1;" parent="1" vertex="1">
          <mxGeometry x="638" y="-270" width="120" height="60" as="geometry" />
        </mxCell>
        <mxCell id="1w434KkkwGxaurQFL4mm-74" value="Provider User&lt;br&gt;----&lt;br&gt;Dr. Surav" style="ellipse;whiteSpace=wrap;html=1;" parent="1" vertex="1">
          <mxGeometry x="638" y="-190" width="120" height="60" as="geometry" />
        </mxCell>
        <mxCell id="1w434KkkwGxaurQFL4mm-91" style="edgeStyle=orthogonalEdgeStyle;rounded=0;orthogonalLoop=1;jettySize=auto;html=1;exitX=1;exitY=0.25;exitDx=0;exitDy=0;" parent="1" source="1w434KkkwGxaurQFL4mm-76" target="1w434KkkwGxaurQFL4mm-89" edge="1">
          <mxGeometry relative="1" as="geometry">
            <Array as="points">
              <mxPoint x="218" y="-230" />
            </Array>
          </mxGeometry>
        </mxCell>
        <mxCell id="1w434KkkwGxaurQFL4mm-76" value="Vayodha Hospital" style="rounded=0;whiteSpace=wrap;html=1;" parent="1" vertex="1">
          <mxGeometry x="98" y="-130" width="120" height="40" as="geometry" />
        </mxCell>
        <mxCell id="1w434KkkwGxaurQFL4mm-82" style="edgeStyle=orthogonalEdgeStyle;rounded=0;orthogonalLoop=1;jettySize=auto;html=1;exitX=1;exitY=0.5;exitDx=0;exitDy=0;entryX=0.5;entryY=1;entryDx=0;entryDy=0;" parent="1" source="1w434KkkwGxaurQFL4mm-78" target="1w434KkkwGxaurQFL4mm-80" edge="1">
          <mxGeometry relative="1" as="geometry" />
        </mxCell>
        <mxCell id="1w434KkkwGxaurQFL4mm-78" value="Vendor Admin&lt;br&gt;--&lt;br&gt;Krishna" style="ellipse;whiteSpace=wrap;html=1;rounded=0;" parent="1" vertex="1">
          <mxGeometry x="298" y="-140" width="120" height="60" as="geometry" />
        </mxCell>
        <mxCell id="1w434KkkwGxaurQFL4mm-79" style="edgeStyle=orthogonalEdgeStyle;rounded=0;orthogonalLoop=1;jettySize=auto;html=1;entryX=0;entryY=0.5;entryDx=0;entryDy=0;" parent="1" source="1w434KkkwGxaurQFL4mm-76" target="1w434KkkwGxaurQFL4mm-78" edge="1">
          <mxGeometry relative="1" as="geometry" />
        </mxCell>
        <mxCell id="1w434KkkwGxaurQFL4mm-86" style="edgeStyle=orthogonalEdgeStyle;rounded=0;orthogonalLoop=1;jettySize=auto;html=1;exitX=1;exitY=0.25;exitDx=0;exitDy=0;entryX=0;entryY=0.5;entryDx=0;entryDy=0;" parent="1" source="1w434KkkwGxaurQFL4mm-80" target="1w434KkkwGxaurQFL4mm-70" edge="1">
          <mxGeometry relative="1" as="geometry" />
        </mxCell>
        <mxCell id="1w434KkkwGxaurQFL4mm-87" style="edgeStyle=orthogonalEdgeStyle;rounded=0;orthogonalLoop=1;jettySize=auto;html=1;exitX=1;exitY=0.5;exitDx=0;exitDy=0;entryX=0;entryY=0.5;entryDx=0;entryDy=0;" parent="1" source="1w434KkkwGxaurQFL4mm-80" target="1w434KkkwGxaurQFL4mm-72" edge="1">
          <mxGeometry relative="1" as="geometry" />
        </mxCell>
        <mxCell id="1w434KkkwGxaurQFL4mm-88" style="edgeStyle=orthogonalEdgeStyle;rounded=0;orthogonalLoop=1;jettySize=auto;html=1;exitX=1;exitY=0.75;exitDx=0;exitDy=0;entryX=0;entryY=0.5;entryDx=0;entryDy=0;" parent="1" source="1w434KkkwGxaurQFL4mm-80" target="1w434KkkwGxaurQFL4mm-74" edge="1">
          <mxGeometry relative="1" as="geometry" />
        </mxCell>
        <mxCell id="1w434KkkwGxaurQFL4mm-80" value="Table" style="rounded=1;whiteSpace=wrap;html=1;" parent="1" vertex="1">
          <mxGeometry x="470" y="-270" width="120" height="60" as="geometry" />
        </mxCell>
        <mxCell id="1w434KkkwGxaurQFL4mm-92" style="edgeStyle=orthogonalEdgeStyle;rounded=0;orthogonalLoop=1;jettySize=auto;html=1;exitX=1;exitY=0.5;exitDx=0;exitDy=0;entryX=0;entryY=0.5;entryDx=0;entryDy=0;" parent="1" source="1w434KkkwGxaurQFL4mm-89" target="1w434KkkwGxaurQFL4mm-80" edge="1">
          <mxGeometry relative="1" as="geometry" />
        </mxCell>
        <mxCell id="1w434KkkwGxaurQFL4mm-89" value="Vendor Admin&lt;br&gt;--&lt;br&gt;Raj" style="ellipse;whiteSpace=wrap;html=1;rounded=0;" parent="1" vertex="1">
          <mxGeometry x="291.5" y="-260" width="120" height="60" as="geometry" />
        </mxCell>
        <mxCell id="1w434KkkwGxaurQFL4mm-94" value="&lt;b&gt;TABLE&lt;/b&gt;: VendorKey, Vendor Admin Key, ProviderKey, Status" style="rounded=1;whiteSpace=wrap;html=1;" parent="1" vertex="1">
          <mxGeometry x="50" y="-10" width="750" height="60" as="geometry" />
        </mxCell>
      </root>
    </mxGraphModel>
  </diagram>
</mxfile>
